# xmcd
#
# Track frame offsets:
#	150
#	4290
#	38859
#	62838
#	103057
#	129655
#	131782
#	180193
#	201206
#	211291
#	214873
#	240958
#	289513
# Disc length: 4375 seconds
# Revision: 1
# Processed by: cddbd v1.5.1PL0 Copyright (c) Steve Scherf et al.
#
# Submitted via: libkcddb 0.20
#
DISCID=bc11150d
DTITLE=Entroducing - DJ Shadow
DYEAR=1900
DGENRE=Polka
TTITLE0=Best Foot Forward
TTITLE1=Building Steam With A Grain Of Salt
TTITLE2=The Number Song
TTITLE3=Changeling
TTITLE4=What Does Your Soul Look Like (Part 4)
TTITLE5=Untitled
TTITLE6=Stem_Long Stem
TTITLE7=Mutual Slump
TTITLE8=Organ Donor
TTITLE9=Why Hip Hop Sucks In '96
TTITLE10=Midnight In A Perfect World
TTITLE11=Napalm Brain_Scatter Brain
TTITLE12=What Does Your Soul Look Like (Part 1 - Blue Sky Revisit)
EXTD=Happy B`Day,Claas
EXTT0=
EXTT1=
EXTT2=
EXTT3=
EXTT4=
EXTT5=
EXTT6=
EXTT7=
EXTT8=
EXTT9=
EXTT10=
EXTT11=
EXTT12=
PLAYORDER=
